<mxfile host="Electron" modified="2024-05-21T14:10:17.168Z" agent="Mozilla/5.0 (X11; Linux x86_64) AppleWebKit/537.36 (KHTML, like Gecko) draw.io/24.4.0 Chrome/120.0.6099.109 Electron/28.1.0 Safari/537.36" etag="wNUo8cQWNeOXyHlD03XO" version="24.4.0" type="device">
  <diagram name="Page-1" id="PARYD9oyhOw1mXYrxNoU">
    <mxGraphModel dx="1434" dy="870" grid="1" gridSize="10" guides="1" tooltips="1" connect="1" arrows="1" fold="1" page="1" pageScale="1" pageWidth="850" pageHeight="1100" math="0" shadow="0">
      <root>
        <mxCell id="0" />
        <mxCell id="1" parent="0" />
        <mxCell id="RATITmoRKJ1wBVHP4xqf-5" value="" style="edgeStyle=orthogonalEdgeStyle;rounded=0;orthogonalLoop=1;jettySize=auto;html=1;" edge="1" parent="1" source="RATITmoRKJ1wBVHP4xqf-1" target="RATITmoRKJ1wBVHP4xqf-4">
          <mxGeometry relative="1" as="geometry" />
        </mxCell>
        <mxCell id="RATITmoRKJ1wBVHP4xqf-6" value="&lt;font style=&quot;font-size: 15px;&quot;&gt;&lt;b&gt;Target lost &amp;gt; 0.5 s&lt;/b&gt;&lt;/font&gt;" style="edgeLabel;html=1;align=center;verticalAlign=middle;resizable=0;points=[];" vertex="1" connectable="0" parent="RATITmoRKJ1wBVHP4xqf-5">
          <mxGeometry x="-0.24" y="1" relative="1" as="geometry">
            <mxPoint as="offset" />
          </mxGeometry>
        </mxCell>
        <mxCell id="RATITmoRKJ1wBVHP4xqf-1" value="&lt;span style=&quot;font-size: 18px;&quot;&gt;&lt;b&gt;Align using target&lt;/b&gt;&lt;/span&gt;" style="rounded=1;whiteSpace=wrap;html=1;" vertex="1" parent="1">
          <mxGeometry x="380" y="320" width="150" height="75" as="geometry" />
        </mxCell>
        <mxCell id="RATITmoRKJ1wBVHP4xqf-8" value="" style="edgeStyle=orthogonalEdgeStyle;rounded=0;orthogonalLoop=1;jettySize=auto;html=1;" edge="1" parent="1" source="RATITmoRKJ1wBVHP4xqf-4" target="RATITmoRKJ1wBVHP4xqf-7">
          <mxGeometry relative="1" as="geometry" />
        </mxCell>
        <mxCell id="RATITmoRKJ1wBVHP4xqf-11" value="&lt;b&gt;&lt;font style=&quot;font-size: 15px;&quot;&gt;Target lost &amp;gt; 7 s&lt;/font&gt;&lt;/b&gt;" style="edgeLabel;html=1;align=center;verticalAlign=middle;resizable=0;points=[];" vertex="1" connectable="0" parent="RATITmoRKJ1wBVHP4xqf-8">
          <mxGeometry x="0.2444" y="-3" relative="1" as="geometry">
            <mxPoint y="-10" as="offset" />
          </mxGeometry>
        </mxCell>
        <mxCell id="RATITmoRKJ1wBVHP4xqf-9" style="edgeStyle=orthogonalEdgeStyle;rounded=0;orthogonalLoop=1;jettySize=auto;html=1;entryX=1;entryY=0.5;entryDx=0;entryDy=0;" edge="1" parent="1" source="RATITmoRKJ1wBVHP4xqf-4" target="RATITmoRKJ1wBVHP4xqf-1">
          <mxGeometry relative="1" as="geometry">
            <Array as="points">
              <mxPoint x="640" y="480" />
              <mxPoint x="640" y="358" />
            </Array>
          </mxGeometry>
        </mxCell>
        <mxCell id="RATITmoRKJ1wBVHP4xqf-10" value="&lt;font style=&quot;font-size: 15px;&quot;&gt;&lt;b&gt;Target found&lt;/b&gt;&lt;/font&gt;" style="edgeLabel;html=1;align=center;verticalAlign=middle;resizable=0;points=[];" vertex="1" connectable="0" parent="RATITmoRKJ1wBVHP4xqf-9">
          <mxGeometry x="0.0044" y="-1" relative="1" as="geometry">
            <mxPoint as="offset" />
          </mxGeometry>
        </mxCell>
        <mxCell id="RATITmoRKJ1wBVHP4xqf-4" value="&lt;span style=&quot;font-size: 18px;&quot;&gt;&lt;b&gt;Ascend to increase visible area&lt;/b&gt;&lt;/span&gt;" style="rounded=1;whiteSpace=wrap;html=1;" vertex="1" parent="1">
          <mxGeometry x="380" y="440" width="150" height="75" as="geometry" />
        </mxCell>
        <mxCell id="RATITmoRKJ1wBVHP4xqf-7" value="&lt;span style=&quot;font-size: 18px;&quot;&gt;&lt;b&gt;Timeout: Loiter&lt;/b&gt;&lt;/span&gt;" style="rounded=1;whiteSpace=wrap;html=1;" vertex="1" parent="1">
          <mxGeometry x="380" y="560" width="150" height="75" as="geometry" />
        </mxCell>
      </root>
    </mxGraphModel>
  </diagram>
</mxfile>
